<?xml version="1.0" standalone="no"?>
<!DOCTYPE svg PUBLIC "-//W3C//DTD SVG 20010904//EN"
 "http://www.w3.org/TR/2001/REC-SVG-20010904/DTD/svg10.dtd">
<svg version="1.0" xmlns="http://www.w3.org/2000/svg"
 width="3427.000000pt" height="944.000000pt" viewBox="0 0 3427.000000 944.000000"
 preserveAspectRatio="xMidYMid meet">

<g transform="translate(0.000000,944.000000) scale(0.100000,-0.100000)"
fill="#000000" stroke="none">
<path d="M4 9368 c4 -40 72 -1205 151 -2588 80 -1383 149 -2571 155 -2640 89
-1076 682 -2102 1714 -2967 389 -326 864 -645 1356 -909 195 -105 508 -254
533 -254 25 0 447 207 633 310 1248 695 2144 1564 2610 2535 201 418 321 857
359 1310 5 60 305 5239 305 5265 0 7 -1395 10 -3911 10 l-3911 0 6 -72z m7596
-171 c0 -109 -293 -5065 -305 -5167 -95 -772 -454 -1496 -1085 -2186 -514
-563 -1259 -1102 -2092 -1515 l-207 -103 -233 116 c-1057 527 -1927 1231
-2470 1998 -392 555 -625 1146 -688 1750 -8 81 -300 5063 -300 5126 0 12 551
14 3690 14 l3690 0 0 -33z"/>
<path d="M437 9023 c-5 -10 267 -4696 282 -4867 66 -718 377 -1403 932 -2046
144 -167 451 -469 624 -614 439 -367 955 -703 1486 -967 l147 -73 63 28 c35
16 144 71 242 122 950 503 1735 1152 2225 1841 141 199 217 325 327 548 182
366 286 707 330 1080 8 72 76 1183 150 2470 74 1287 137 2373 140 2413 l6 72
-3475 0 c-1911 0 -3477 -3 -3479 -7z m4540 -1493 c582 -330 1059 -604 1061
-608 1 -4 -48 -36 -110 -71 -62 -35 -541 -306 -1065 -603 l-952 -540 -933 530
c-513 291 -993 562 -1065 603 -73 41 -133 76 -133 79 0 8 2112 1208 2127 1209
7 1 489 -269 1070 -599z m-2035 -1610 l969 -550 979 555 979 555 146 -72 c80
-40 145 -75 145 -78 0 -3 -44 -30 -98 -60 -53 -30 -559 -316 -1124 -636
l-1027 -583 -983 558 c-541 307 -1048 594 -1127 638 l-143 81 43 25 c99 57
245 126 257 121 8 -2 450 -252 984 -554z m-72 -583 c552 -313 1014 -574 1025
-579 17 -7 199 92 1055 578 569 323 1040 587 1045 587 16 0 265 -116 265 -123
0 -3 -528 -306 -1174 -672 l-1175 -667 -1175 667 c-647 367 -1176 669 -1176
672 0 3 60 33 133 66 106 49 136 59 152 51 11 -5 472 -266 1025 -580z m25
-896 c484 -275 897 -513 918 -531 21 -17 52 -56 69 -86 l30 -55 21 43 c12 24
40 61 62 83 28 28 310 193 928 543 l887 503 132 -3 132 -3 -1081 -613 -1082
-613 -1053 597 c-579 328 -1066 605 -1083 615 l-30 19 135 0 135 0 880 -499z
m307 180 c323 -183 584 -337 611 -362 27 -23 58 -62 70 -86 12 -23 23 -43 27
-43 3 0 15 20 28 44 13 24 40 59 60 79 21 20 283 175 611 362 l575 325 243 -2
243 -3 -872 -495 c-480 -272 -880 -495 -888 -494 -11 0 -1740 974 -1759 990
-2 2 107 4 242 4 l246 0 563 -319z m103 -1381 c414 -234 463 -269 484 -346 16
-59 15 -658 -1 -651 -9 3 -1534 865 -2133 1205 -15 9 137 11 620 12 l640 0
390 -220z m2874 216 c-8 -7 -2128 -1206 -2144 -1212 -15 -6 -16 21 -13 317 3
310 4 326 25 364 11 22 33 51 47 64 14 14 203 125 419 247 l392 223 639 1
c352 0 637 -2 635 -4z m-2652 -1137 c98 -55 189 -111 202 -122 49 -45 64 -122
35 -180 -9 -18 -113 -130 -232 -249 l-217 -218 -420 0 -420 0 435 435 c239
239 436 435 437 435 2 0 83 -45 180 -101z m1383 -334 l435 -435 -421 0 -420 0
-221 223 c-183 184 -223 229 -234 265 -14 50 -2 106 34 147 17 20 364 229 387
234 3 1 201 -195 440 -434z"/>
<path d="M4400 7490 c-41 -41 -13 -100 46 -100 39 0 54 16 54 56 0 60 -59 85
-100 44z"/>
<path d="M3803 7476 c-35 -8 -90 -29 -124 -47 -56 -30 -63 -32 -92 -20 -107
43 -168 61 -214 61 -44 0 -55 -4 -72 -26 -12 -15 -21 -34 -21 -44 0 -32 59
-135 110 -192 50 -56 50 -57 40 -100 -13 -58 -13 -169 1 -223 l11 -44 -51 -58
c-52 -58 -111 -161 -111 -193 0 -10 10 -30 22 -45 20 -26 25 -27 87 -23 66 5
221 60 221 78 0 5 -8 13 -17 19 -10 5 -16 11 -13 13 3 2 39 21 80 42 110 58
251 148 373 239 85 63 105 84 95 92 -8 5 -42 32 -77 59 -52 40 -71 49 -109 51
-48 2 -72 22 -72 60 0 17 -27 37 -122 92 -68 39 -134 76 -146 83 l-24 12 22
15 c21 15 26 14 67 -6 24 -11 85 -46 135 -77 71 -43 97 -54 118 -49 33 7 80
-27 80 -58 0 -16 25 -41 90 -90 l90 -69 68 60 c37 33 76 69 86 81 24 26 31 26
42 1 8 -18 14 -14 59 40 64 78 108 159 103 195 l-3 27 -28 -39 c-15 -21 -40
-56 -55 -79 -15 -23 -41 -58 -58 -78 l-31 -37 -27 46 c-15 25 -41 62 -58 81
-17 19 -29 36 -27 38 2 1 26 11 53 22 53 21 61 31 47 53 -8 12 -20 10 -76 -14
l-67 -28 -52 26 c-121 62 -238 79 -353 53z m-308 -84 c39 -13 72 -26 74 -28 2
-1 -12 -22 -31 -46 -19 -24 -43 -58 -54 -75 -10 -18 -22 -33 -25 -33 -8 0 -61
64 -97 117 -32 46 -39 90 -16 96 28 6 70 -3 149 -31z m-10 -644 c10 -18 34
-52 53 -76 19 -23 33 -44 31 -46 -2 -2 -30 -13 -62 -25 -115 -42 -177 -47
-177 -12 0 35 105 191 128 191 4 0 16 -15 27 -32z"/>
<path d="M4296 7067 l-78 -72 81 -73 c70 -64 82 -71 89 -55 11 27 9 250 -3
262 -7 6 -37 -15 -89 -62z"/>
<path d="M4110 6909 c-111 -87 -241 -174 -368 -247 l-123 -70 70 -35 c142 -71
292 -71 443 0 l77 36 53 -23 c122 -53 223 -65 258 -30 41 41 15 117 -80 234
-47 57 -55 64 -63 49 -6 -10 -11 -20 -13 -22 -2 -2 -42 32 -89 75 -47 44 -89
80 -93 81 -4 2 -36 -20 -72 -48z m311 -190 c70 -86 88 -144 45 -155 -24 -6
-216 52 -216 66 0 4 9 15 21 26 11 10 37 45 57 77 28 47 38 56 46 45 6 -8 27
-34 47 -59z"/>
<path d="M8712 9388 c140 -347 190 -527 225 -812 13 -112 17 -363 23 -1701 8
-1653 8 -1683 56 -2010 101 -701 363 -1198 795 -1507 280 -200 599 -315 1039
-375 208 -28 693 -25 885 5 560 88 995 305 1447 723 53 49 99 89 102 89 3 0 6
-144 6 -320 l0 -320 654 0 655 0 -50 106 c-134 284 -177 461 -199 819 -6 106
-10 991 -10 2354 0 2376 -3 2262 55 2491 27 106 98 316 144 429 17 41 31 75
31 77 0 2 -358 4 -795 4 l-795 0 25 -50 c42 -83 112 -260 134 -340 32 -115 59
-289 70 -458 14 -202 15 -3104 1 -3292 -28 -375 -83 -609 -196 -830 -66 -129
-131 -217 -230 -309 -270 -253 -671 -374 -1234 -374 -302 1 -503 39 -705 137
-444 213 -657 626 -727 1406 -19 208 -19 3061 0 3300 24 310 57 546 102 720
11 43 20 81 20 84 0 3 -349 6 -775 6 l-775 0 22 -52z"/>
<path d="M14757 8893 c-98 -302 -177 -551 -177 -555 0 -4 58 28 129 72 71 43
178 103 238 133 290 146 438 167 1149 167 l445 0 -4 -2262 c-4 -2451 -2 -2349
-57 -2641 -32 -168 -108 -411 -195 -629 -7 -17 34 -18 765 -18 l772 0 -5 23
c-3 12 -28 110 -55 217 -51 200 -69 292 -99 510 -15 114 -17 333 -20 2463 l-4
2339 443 -5 c399 -4 453 -6 539 -25 213 -45 397 -124 578 -246 l108 -73 133
421 c74 232 150 474 171 539 l37 117 -2357 0 -2358 0 -176 -547z"/>
<path d="M20010 9434 c0 -3 18 -46 39 -97 89 -209 129 -349 153 -532 19 -147
19 -4831 0 -4985 -26 -214 -77 -379 -173 -558 -27 -51 -49 -95 -49 -97 0 -3
362 -5 805 -5 443 0 805 2 805 5 0 3 -27 51 -60 107 -72 123 -115 223 -145
342 -46 183 -50 285 -50 1436 l0 1075 1560 0 1560 0 0 -1040 c0 -1091 -2
-1160 -46 -1377 -25 -124 -55 -207 -140 -389 -38 -81 -69 -150 -69 -153 0 -3
358 -6 795 -6 437 0 795 3 795 7 0 4 -36 77 -79 163 -90 177 -113 245 -133
385 -19 147 -19 4824 0 4995 27 229 80 431 163 625 22 50 39 93 39 98 0 4
-349 7 -775 7 -426 0 -775 -2 -775 -4 0 -2 22 -45 49 -97 112 -212 155 -372
171 -640 5 -90 10 -536 10 -992 l0 -827 -1562 2 -1563 3 0 885 c1 923 4 1027
45 1225 21 102 56 217 106 347 19 50 34 92 34 94 0 2 -340 4 -755 4 -415 0
-755 -2 -755 -6z"/>
<path d="M26940 9416 c5 -13 26 -59 48 -102 107 -214 135 -431 87 -694 -14
-79 -206 -1423 -530 -3700 -75 -525 -147 -1013 -161 -1085 -46 -229 -131 -451
-239 -620 l-36 -55 606 0 c333 0 605 4 605 9 0 4 -15 41 -34 82 -126 274 -155
538 -107 954 19 159 598 4095 604 4101 1 1 482 -1155 1068 -2569 l1066 -2572
107 -3 107 -3 19 43 c10 24 506 1196 1102 2605 596 1410 1085 2563 1088 2563
6 0 505 -4055 521 -4234 27 -306 -11 -542 -141 -860 -22 -55 -40 -103 -40
-108 0 -4 358 -8 795 -8 437 0 795 4 795 8 0 4 -36 98 -80 207 -96 239 -149
399 -184 555 -14 65 -90 612 -171 1245 -80 622 -208 1616 -285 2210 -157 1219
-161 1257 -162 1485 -1 139 3 178 21 245 25 94 78 209 126 277 l35 48 -834 0
-833 0 -17 -87 c-44 -224 -112 -459 -201 -688 -24 -60 -356 -856 -739 -1769
-383 -912 -702 -1672 -709 -1688 -12 -30 -42 41 -711 1673 -385 937 -719 1758
-743 1823 -90 244 -143 485 -143 655 l0 81 -855 0 -855 0 10 -24z"/>
<path d="M8690 2505 l0 -55 12790 0 12790 0 0 55 0 55 -12790 0 -12790 0 0
-55z"/>
<path d="M10805 1838 c-58 -31 -72 -97 -31 -145 20 -23 32 -28 71 -28 39 0 51
5 71 28 65 75 -25 193 -111 145z"/>
<path d="M14101 1837 c-27 -16 -50 -53 -51 -80 -1 -50 50 -97 106 -97 39 0 84
51 84 94 0 69 -80 116 -139 83z"/>
<path d="M15034 1840 c-32 -13 -54 -50 -54 -91 0 -29 7 -43 31 -63 52 -44 128
-25 148 37 26 78 -49 148 -125 117z"/>
<path d="M23194 1840 c-32 -13 -54 -50 -54 -91 0 -29 7 -43 31 -63 34 -29 67
-33 108 -11 58 30 63 105 9 150 -30 26 -57 30 -94 15z"/>
<path d="M25305 1844 c-11 -2 -45 -9 -75 -15 -231 -47 -410 -271 -410 -514 0
-147 50 -265 155 -370 143 -143 340 -196 538 -146 135 35 239 103 312 206 55
76 81 142 94 236 37 267 -119 506 -379 583 -55 16 -198 29 -235 20z m198 -141
c67 -21 147 -97 180 -171 86 -191 39 -461 -97 -564 -66 -49 -154 -73 -243 -65
-203 17 -323 173 -323 417 1 96 11 151 41 214 75 160 255 229 442 169z"/>
<path d="M33248 1834 c-57 -30 -65 -98 -19 -145 35 -34 72 -37 118 -10 57 35
53 125 -8 156 -35 19 -56 18 -91 -1z"/>
<path d="M8708 1773 c13 -32 17 -92 23 -363 7 -353 14 -403 67 -490 30 -49
102 -103 160 -120 149 -43 323 -10 426 81 l35 30 3 -48 3 -48 103 -3 c56 -1
102 -1 102 1 0 3 -8 22 -17 43 -16 35 -18 84 -21 440 -3 373 -2 405 16 458
l19 56 -124 0 c-67 0 -123 -1 -123 -2 0 -2 7 -21 15 -43 21 -60 21 -630 0
-702 -18 -59 -70 -113 -131 -134 -59 -21 -181 -18 -228 5 -49 25 -92 84 -105
147 -13 60 -14 637 -2 692 l9 37 -124 0 -123 0 17 -37z"/>
<path d="M15755 1798 c-20 -53 -53 -158 -51 -158 2 0 25 12 52 27 44 25 58 27
154 28 l105 0 0 -380 c0 -332 -3 -387 -18 -437 -9 -31 -17 -59 -17 -62 0 -3
54 -6 121 -6 110 0 120 1 115 18 -21 65 -26 166 -26 500 l0 374 88 -4 c70 -3
97 -9 133 -29 l46 -26 23 71 c12 39 25 77 27 84 4 9 -74 12 -371 12 -292 0
-378 -3 -381 -12z"/>
<path d="M18695 1793 c23 -56 26 -116 23 -500 -3 -378 -5 -421 -21 -450 l-18
-33 130 0 130 0 -19 42 c-17 38 -20 67 -20 241 l0 197 248 -2 247 -3 0 -190
c-1 -156 -4 -197 -18 -229 -9 -21 -17 -42 -17 -47 0 -5 56 -9 125 -9 69 0 125
2 125 5 0 3 -8 18 -17 32 -16 25 -18 64 -18 458 0 383 2 434 17 468 l17 37
-125 0 -125 0 18 -32 c13 -26 18 -67 21 -200 l4 -168 -251 0 -251 0 0 163 c1
109 5 174 14 200 l14 37 -120 0 c-110 0 -120 -1 -113 -17z"/>
<path d="M28410 1784 c16 -42 13 -82 -46 -489 -37 -260 -62 -405 -75 -434 -10
-24 -19 -45 -19 -47 0 -2 43 -4 96 -4 88 0 96 2 89 18 -20 48 -25 99 -16 166
31 217 92 620 95 623 4 4 37 -74 221 -519 89 -214 124 -288 136 -288 17 0 19
5 265 588 70 165 101 228 106 215 4 -10 23 -157 44 -326 35 -294 39 -392 19
-454 l-7 -23 126 0 126 0 -21 53 c-15 36 -36 165 -70 427 -51 389 -56 451 -39
494 l10 26 -129 0 -129 0 -16 -52 c-8 -29 -68 -180 -133 -335 -104 -248 -119
-279 -129 -260 -35 68 -234 571 -240 606 l-7 41 -133 0 -134 0 10 -26z"/>
<path d="M30477 1783 c10 -37 10 -887 0 -935 l-8 -38 114 0 115 0 -14 38 c-10
29 -13 139 -14 500 l0 462 -100 0 -100 0 7 -27z"/>
<path d="M14525 1624 c-71 -78 -131 -147 -133 -153 -2 -7 13 -11 41 -11 l45 0
4 -257 c4 -252 4 -259 30 -314 31 -68 78 -101 152 -107 79 -6 120 15 140 74 9
26 16 51 16 55 0 5 -22 5 -48 2 -45 -5 -50 -3 -74 26 -34 39 -40 99 -36 336
l3 180 76 3 76 3 10 54 9 54 -85 3 -86 3 -5 95 -5 95 -130 -141z"/>
<path d="M10190 1597 c-62 -14 -120 -46 -149 -83 -26 -33 -31 -30 -31 16 l0
40 -101 0 c-92 0 -101 -2 -94 -17 4 -10 12 -37 17 -59 11 -49 5 -629 -6 -661
-8 -23 -8 -23 104 -23 105 0 111 1 105 19 -25 80 -33 316 -15 440 18 130 83
201 184 203 66 1 103 -18 128 -66 19 -36 22 -61 26 -226 3 -170 -6 -309 -23
-352 -7 -17 2 -18 109 -18 64 0 116 2 116 4 0 3 -5 17 -12 33 -7 18 -13 131
-17 308 l-6 280 -30 55 c-25 45 -39 59 -85 82 -66 32 -145 41 -220 25z"/>
<path d="M12181 1599 c-108 -18 -190 -74 -249 -167 -42 -66 -62 -142 -62 -237
0 -230 126 -373 359 -407 137 -20 314 24 327 81 3 14 12 51 20 82 20 80 18 84
-17 54 -66 -54 -148 -88 -231 -93 -84 -5 -120 4 -175 46 -39 29 -80 110 -89
175 l-7 47 278 0 278 0 -6 73 c-11 126 -51 215 -128 280 -68 59 -186 85 -298
66z m168 -136 c30 -22 57 -72 66 -125 l7 -38 -176 0 c-164 0 -176 1 -176 18 0
30 53 125 81 145 54 39 145 39 198 0z"/>
<path d="M13105 1595 c-24 -8 -59 -35 -87 -65 l-48 -51 0 45 0 46 -101 0
c-100 0 -100 0 -93 -22 20 -64 24 -115 24 -369 0 -208 -3 -287 -14 -322 l-14
-47 119 0 c65 0 119 1 119 3 0 2 -7 24 -16 50 -13 38 -15 84 -12 254 3 194 5
211 26 251 35 66 103 98 151 72 16 -8 19 -3 25 43 15 129 6 142 -79 112z"/>
<path d="M13518 1599 c-160 -24 -258 -116 -258 -242 0 -130 60 -185 262 -242
154 -44 197 -83 165 -151 -21 -43 -71 -64 -151 -64 -90 0 -162 29 -232 92
l-55 51 7 -79 c12 -128 10 -125 95 -153 60 -20 95 -25 189 -25 106 -1 120 2
175 27 104 49 153 114 162 217 9 100 -41 175 -142 213 -22 9 -86 29 -142 46
-111 34 -143 59 -143 112 0 56 58 91 151 91 64 0 130 -25 190 -73 l39 -31 0
86 0 85 -62 19 c-79 24 -176 33 -250 21z"/>
<path d="M17759 1600 c-63 -11 -115 -37 -156 -77 l-33 -34 0 41 0 40 -104 0
-105 0 15 -36 c13 -31 15 -90 12 -380 l-3 -344 104 0 103 0 -8 38 c-15 62 -11
451 4 495 17 47 55 93 93 113 40 20 133 20 164 0 56 -37 60 -60 60 -321 0
-132 -4 -259 -8 -282 l-9 -43 112 0 c112 0 112 0 105 23 -4 12 -11 148 -14
302 -6 275 -7 281 -32 336 -26 56 -70 99 -119 117 -39 15 -131 21 -181 12z"/>
<path d="M20974 1600 c-117 -17 -197 -63 -241 -137 -54 -92 -28 -221 56 -276
37 -24 96 -47 228 -87 89 -27 123 -56 123 -104 0 -26 -7 -40 -31 -60 -39 -33
-64 -39 -147 -34 -82 4 -157 38 -221 99 l-43 42 7 -94 c4 -52 9 -97 12 -102
19 -32 204 -71 302 -64 98 8 138 20 197 60 70 47 107 119 108 207 1 123 -50
169 -254 228 -111 33 -147 53 -168 95 -11 22 -11 32 0 54 41 84 214 87 318 4
62 -49 60 -50 60 42 l0 84 -67 21 c-80 25 -168 33 -239 22z"/>
<path d="M21725 1599 c-193 -29 -304 -186 -236 -336 29 -62 85 -97 234 -144
139 -44 187 -75 187 -121 0 -61 -63 -98 -167 -98 -83 0 -167 36 -239 102 l-47
43 6 -30 c3 -16 9 -62 12 -102 l7 -72 53 -20 c122 -46 272 -51 380 -15 64 22
146 102 163 160 15 51 16 123 1 161 -26 69 -88 109 -231 149 -160 44 -213 89
-178 152 51 89 215 85 332 -8 20 -17 39 -30 42 -30 3 0 6 36 6 80 0 77 -1 80
-27 93 -66 33 -206 50 -298 36z"/>
<path d="M22530 1599 c-77 -13 -167 -66 -216 -126 -107 -131 -125 -353 -40
-498 104 -176 373 -247 581 -151 l50 23 18 82 c10 46 17 84 15 86 -2 2 -26
-11 -54 -30 -112 -75 -240 -97 -330 -56 -57 26 -108 90 -128 160 -28 100 -53
91 259 91 l275 0 0 53 c0 113 -58 250 -129 304 -71 55 -193 80 -301 62z m150
-124 c48 -25 88 -93 90 -152 0 -23 0 -23 -176 -23 l-176 0 6 28 c11 47 50 114
77 134 49 37 121 42 179 13z"/>
<path d="M23909 1600 c-60 -10 -105 -34 -151 -78 l-38 -36 0 42 0 42 -101 0
c-92 0 -101 -2 -94 -17 21 -55 26 -150 22 -412 -2 -157 -7 -296 -12 -308 -7
-23 -7 -23 105 -23 103 0 112 1 105 17 -21 55 -27 132 -23 297 3 161 6 186 26
231 13 27 30 58 40 69 43 48 162 64 211 29 59 -43 62 -63 59 -348 -2 -143 -7
-268 -12 -277 -7 -17 1 -18 104 -18 l112 0 -7 28 c-4 15 -10 153 -14 307 -6
255 -8 284 -27 325 -25 53 -66 93 -114 113 -46 19 -134 27 -191 17z"/>
<path d="M26467 1600 c-55 -10 -127 -49 -155 -85 -27 -34 -32 -32 -32 15 l0
40 -101 0 c-92 0 -101 -2 -94 -17 4 -10 12 -37 17 -59 11 -49 5 -629 -6 -661
-8 -23 -8 -23 104 -23 101 0 111 2 106 18 -26 83 -35 313 -16 441 18 130 83
201 184 203 67 1 104 -18 128 -66 19 -36 22 -63 26 -216 4 -159 -6 -318 -23
-362 -7 -17 2 -18 108 -18 l116 0 -11 33 c-6 17 -13 158 -17 312 l-6 280 -31
55 c-25 45 -41 60 -85 82 -60 30 -139 40 -212 28z"/>
<path d="M27399 1600 c-63 -11 -115 -37 -156 -77 l-33 -34 0 41 0 40 -104 0
-104 0 15 -42 c12 -35 14 -105 11 -380 l-3 -338 104 0 c103 0 103 0 96 23 -4
12 -10 115 -12 229 -4 169 -2 217 11 262 29 99 87 146 181 147 64 1 96 -16
122 -64 16 -28 18 -61 18 -272 0 -132 -4 -259 -8 -282 l-9 -43 112 0 c112 0
112 0 105 23 -4 12 -11 146 -15 297 -4 151 -12 289 -17 306 -26 77 -71 129
-133 152 -39 15 -131 21 -181 12z"/>
<path d="M29834 1600 c-34 -5 -80 -13 -102 -19 -39 -11 -41 -13 -52 -69 -7
-31 -15 -74 -20 -94 l-8 -37 52 35 c55 37 159 74 210 74 55 0 133 -29 155 -57
12 -14 21 -40 21 -58 0 -54 -31 -72 -191 -111 -222 -54 -280 -100 -287 -224
-5 -85 9 -128 57 -177 97 -100 232 -108 375 -22 l64 39 40 -40 c40 -40 81 -51
126 -34 23 9 63 77 48 82 -6 2 -22 12 -34 22 -23 18 -23 22 -26 271 -4 283 -8
302 -77 354 -69 53 -224 82 -351 65z m266 -462 c-1 -113 -27 -168 -101 -206
-65 -34 -142 -27 -181 17 -52 58 -31 143 45 180 45 22 176 59 215 60 20 1 22
-3 22 -51z"/>
<path d="M31037 1599 c-37 -5 -82 -15 -100 -23 -31 -12 -34 -19 -46 -82 -7
-38 -15 -80 -18 -93 l-6 -24 34 26 c88 66 214 100 296 78 80 -22 130 -90 103
-140 -16 -31 -59 -49 -182 -76 -223 -50 -292 -108 -292 -245 0 -218 245 -312
445 -172 l56 39 17 -28 c21 -36 64 -59 110 -59 37 0 58 15 81 61 15 28 14 29
-11 35 -14 4 -30 17 -35 31 -5 13 -9 129 -9 256 0 204 -3 237 -19 272 -37 81
-117 129 -243 145 -83 11 -88 11 -181 -1z m273 -479 c0 -39 -6 -85 -14 -103
-55 -129 -254 -148 -286 -27 -9 35 -8 47 7 78 23 46 67 71 173 99 126 33 120
35 120 -47z"/>
<path d="M32674 1600 c-117 -17 -197 -63 -241 -137 -54 -92 -28 -221 56 -276
37 -24 96 -47 228 -87 89 -27 123 -56 123 -104 0 -26 -7 -40 -31 -60 -39 -33
-64 -39 -147 -34 -82 4 -157 38 -221 99 l-43 42 7 -94 c4 -52 9 -97 12 -102
19 -32 204 -71 302 -64 98 8 138 20 197 60 68 46 106 118 107 201 1 124 -58
180 -245 232 -112 31 -156 56 -176 97 -11 22 -11 32 0 54 41 84 214 87 318 4
62 -49 60 -50 60 42 l0 84 -67 21 c-80 25 -168 33 -239 22z"/>
<path d="M33762 1599 c-92 -12 -131 -27 -137 -52 -28 -120 -35 -153 -35 -160
0 -4 15 3 33 17 87 66 213 99 296 76 51 -14 111 -67 111 -100 0 -59 -37 -81
-190 -115 -139 -31 -201 -58 -244 -106 -107 -117 -47 -309 113 -364 88 -30
189 -12 282 51 l53 36 26 -30 c32 -38 60 -52 104 -52 37 0 58 15 81 60 14 27
14 28 -15 39 -17 5 -31 11 -32 13 -1 2 -4 123 -7 269 l-6 266 -29 41 c-38 56
-125 99 -226 112 -85 11 -91 11 -178 -1z m268 -486 c0 -63 -4 -83 -25 -119
-30 -52 -91 -84 -158 -84 -39 0 -53 5 -83 33 -28 26 -35 40 -37 73 -3 78 48
119 191 153 119 29 112 33 112 -56z"/>
<path d="M10735 1553 c21 -57 26 -136 22 -404 -2 -162 -7 -304 -11 -316 -8
-23 -8 -23 104 -23 112 0 112 0 105 23 -16 55 -24 193 -24 455 l-1 282 -101 0
c-92 0 -101 -2 -94 -17z"/>
<path d="M11101 1493 c22 -43 105 -213 183 -378 115 -243 147 -301 164 -303
18 -3 28 11 65 90 25 51 107 219 183 373 77 154 141 283 142 288 2 4 -32 7
-75 7 l-78 0 0 -38 c0 -27 -28 -93 -97 -237 -53 -110 -100 -199 -104 -198 -4
0 -49 86 -98 190 -74 154 -90 197 -91 235 l0 48 -117 0 -118 0 41 -77z"/>
<path d="M14047 1521 c11 -39 13 -113 11 -362 -2 -173 -7 -322 -12 -331 -7
-17 1 -18 104 -18 112 0 112 0 104 23 -4 12 -9 183 -11 380 l-4 357 -103 0
-104 0 15 -49z"/>
<path d="M14964 1555 c21 -57 28 -167 23 -422 -2 -153 -8 -288 -12 -300 -7
-23 -7 -23 105 -23 103 0 112 1 105 18 -19 48 -25 154 -25 435 l0 307 -101 0
c-86 0 -100 -2 -95 -15z"/>
<path d="M16446 1518 c10 -36 14 -120 14 -273 0 -306 20 -372 131 -435 38 -22
56 -25 134 -25 102 1 151 19 218 83 l37 36 0 -47 0 -47 101 0 c101 0 101 0 93
23 -4 12 -10 183 -11 380 l-4 357 -105 0 c-97 0 -106 -2 -99 -17 32 -84 33
-445 1 -518 -34 -79 -86 -115 -166 -115 -63 0 -104 20 -127 63 -16 28 -18 67
-21 310 l-3 277 -103 0 -103 0 13 -52z"/>
<path d="M19795 1548 c4 -13 11 -144 15 -293 8 -303 15 -338 79 -405 93 -98
295 -90 406 15 l35 32 0 -43 0 -44 101 0 c101 0 101 0 93 23 -4 12 -9 183 -11
380 l-4 357 -106 0 c-96 0 -105 -1 -98 -17 21 -51 26 -122 23 -296 -4 -195
-10 -227 -51 -278 -28 -37 -81 -59 -139 -59 -49 0 -62 4 -91 30 -51 44 -57 84
-57 369 l0 251 -101 0 c-101 0 -101 0 -94 -22z"/>
<path d="M23124 1555 c21 -57 28 -167 23 -422 -2 -153 -8 -288 -12 -300 -7
-23 -7 -23 105 -23 103 0 112 1 105 18 -19 48 -25 154 -25 435 l0 307 -101 0
c-86 0 -100 -2 -95 -15z"/>
<path d="M31575 1543 c38 -57 58 -98 191 -378 l137 -290 -52 -102 c-54 -106
-107 -167 -158 -179 -15 -4 -47 -2 -71 5 -25 6 -46 10 -47 9 -1 -2 -5 -33 -9
-70 l-7 -68 49 0 c81 0 145 25 207 82 73 67 100 114 321 568 103 212 196 397
206 412 10 14 18 29 18 32 0 3 -38 6 -84 6 l-84 0 4 -37 c4 -32 -12 -70 -98
-247 l-103 -209 -98 213 c-77 167 -98 220 -95 247 l4 33 -124 0 -124 0 17 -27z"/>
<path d="M33185 1553 c21 -55 26 -150 22 -411 -2 -158 -7 -297 -11 -309 -8
-23 -8 -23 104 -23 102 0 112 2 106 17 -18 45 -25 182 -26 451 l0 292 -101 0
c-92 0 -101 -2 -94 -17z"/>
</g>
</svg>
